<svg width="512" height="220" viewBox="0 0 512 220" fill="none" xmlns="http://www.w3.org/2000/svg">
<path d="M259.51 79.1229H220.352C219.494 79.1257 218.648 78.9143 217.876 78.5048C217.105 78.0953 216.429 77.4984 215.9 76.7596C215.361 76.0138 214.985 75.1432 214.799 74.2141C214.614 73.285 214.625 72.3218 214.831 71.3979C218.44 54.8398 218.44 37.5836 214.831 21.0255C214.625 20.1016 214.614 19.1385 214.799 18.2095C214.985 17.2804 215.361 16.4099 215.9 15.6641C216.429 14.9252 217.105 14.3283 217.876 13.9188C218.648 13.5093 219.494 13.2979 220.352 13.3008H259.51C260.862 13.3051 262.169 13.8349 263.198 14.7958C264.226 15.7568 264.91 17.0865 265.128 18.5482C267.705 36.8826 267.705 55.5411 265.128 73.8755C264.91 75.3371 264.226 76.6669 263.198 77.6278C262.169 78.5888 260.862 79.1186 259.51 79.1229Z" fill="#E6E6E6"/>
<path d="M220.35 16.5274C219.938 16.5258 219.532 16.6272 219.161 16.8237C218.791 17.0203 218.466 17.3068 218.212 17.6615C217.95 18.0249 217.767 18.4489 217.678 18.9013C217.588 19.3537 217.594 19.8225 217.694 20.2722C221.411 37.325 221.411 55.0969 217.694 72.1498C217.594 72.5993 217.588 73.0681 217.678 73.5204C217.767 73.9727 217.95 74.3967 218.212 74.76C218.466 75.1148 218.791 75.4016 219.161 75.5982C219.532 75.7948 219.938 75.8961 220.35 75.8946H259.509C260.158 75.8949 260.786 75.6427 261.282 75.183C261.777 74.7232 262.108 74.0858 262.214 73.3843C264.745 55.3748 264.745 37.0471 262.214 19.0377C262.108 18.3361 261.777 17.6988 261.282 17.239C260.786 16.7793 260.158 16.5271 259.509 16.5274L220.35 16.5274Z" fill="white"/>
<path d="M250.963 47.9813H230.414C229.633 47.9804 228.884 47.6401 228.332 47.035C227.779 46.43 227.469 45.6097 227.468 44.7541V43.4929C227.469 42.6372 227.779 41.8169 228.332 41.2119C228.884 40.6069 229.633 40.2666 230.414 40.2656H250.963C251.744 40.2666 252.493 40.6069 253.045 41.2119C253.598 41.8169 253.908 42.6372 253.909 43.4929V44.7541C253.908 45.6097 253.598 46.43 253.045 47.035C252.493 47.6401 251.744 47.9804 250.963 47.9813Z" fill="#E6E6E6"/>
<path d="M250.963 63.9188H230.414C229.633 63.9179 228.884 63.5776 228.332 62.9725C227.779 62.3675 227.469 61.5472 227.468 60.6915V59.4304C227.469 58.5747 227.779 57.7544 228.332 57.1494C228.884 56.5444 229.633 56.2041 230.414 56.2031H250.963C251.744 56.2041 252.493 56.5444 253.045 57.1494C253.598 57.7544 253.908 58.5747 253.909 59.4304V60.6915C253.908 61.5472 253.598 62.3675 253.045 62.9725C252.493 63.5776 251.744 63.9179 250.963 63.9188Z" fill="#E6E6E6"/>
<path d="M333.17 120.002H294.012C293.154 120.005 292.308 119.793 291.536 119.384C290.765 118.974 290.089 118.377 289.56 117.638C289.021 116.893 288.645 116.022 288.46 115.093C288.274 114.164 288.285 113.201 288.491 112.277C292.1 95.7187 292.1 78.4625 288.491 61.9044C288.285 60.9805 288.274 60.0174 288.46 59.0884C288.645 58.1593 289.021 57.2888 289.56 56.543C290.089 55.8041 290.765 55.2072 291.536 54.7977C292.308 54.3882 293.154 54.1768 294.012 54.1797H333.17C334.522 54.184 335.829 54.7138 336.858 55.6747C337.887 56.6357 338.571 57.9654 338.788 59.4271C341.365 77.7615 341.365 96.42 338.788 114.754C338.571 116.216 337.887 117.546 336.858 118.507C335.829 119.468 334.522 119.998 333.17 120.002Z" fill="#E6E6E6"/>
<path d="M294.01 57.4063C293.598 57.4048 293.192 57.5061 292.821 57.7026C292.451 57.8992 292.126 58.1857 291.872 58.5404C291.61 58.9038 291.427 59.3278 291.338 59.7802C291.248 60.2326 291.254 60.7014 291.354 61.1511C295.071 78.204 295.072 95.9758 291.355 113.029C291.254 113.478 291.248 113.947 291.338 114.399C291.427 114.852 291.61 115.276 291.872 115.639C292.126 115.994 292.451 116.281 292.821 116.477C293.192 116.674 293.598 116.775 294.01 116.774H333.169C333.818 116.774 334.447 116.522 334.942 116.062C335.437 115.602 335.768 114.965 335.874 114.263C338.406 96.2537 338.406 77.926 335.874 59.9166C335.768 59.2151 335.437 58.5777 334.942 58.1179C334.447 57.6582 333.818 57.406 333.169 57.4063L294.01 57.4063Z" fill="white"/>
<path d="M255.09 166.532H215.931C215.037 166.535 214.154 166.314 213.349 165.887C212.544 165.46 211.839 164.837 211.287 164.066C210.725 163.288 210.332 162.381 210.139 161.412C209.946 160.443 209.957 159.439 210.172 158.475C213.772 141.958 213.772 124.745 210.172 108.228C209.957 107.265 209.946 106.261 210.139 105.292C210.332 104.323 210.725 103.415 211.286 102.638C211.838 101.867 212.544 101.244 213.349 100.817C214.154 100.39 215.037 100.169 215.931 100.172H255.09C256.5 100.177 257.864 100.729 258.937 101.732C260.01 102.735 260.723 104.122 260.95 105.647C263.531 124.009 263.531 142.695 260.95 161.056C260.723 162.581 260.01 163.969 258.937 164.972C257.864 165.974 256.5 166.527 255.09 166.532Z" fill="#F2F2F2"/>
<path d="M324.624 80.9969H304.075C303.294 80.996 302.545 80.6557 301.993 80.0507C301.44 79.4456 301.13 78.6253 301.129 77.7697V76.5085C301.13 75.6529 301.44 74.8326 301.993 74.2275C302.545 73.6225 303.294 73.2822 304.075 73.2812H324.624C325.405 73.2822 326.154 73.6225 326.707 74.2275C327.259 74.8326 327.57 75.6529 327.57 76.5085V77.7697C327.57 78.6253 327.259 79.4456 326.707 80.0507C326.154 80.6557 325.405 80.996 324.624 80.9969Z" fill="#E6E6E6"/>
<path d="M324.624 96.9305H304.075C303.294 96.9296 302.545 96.5893 301.993 95.9842C301.44 95.3792 301.13 94.5589 301.129 93.7033V92.4421C301.13 91.5865 301.44 90.7661 301.993 90.1611C302.545 89.5561 303.294 89.2158 304.075 89.2148H324.624C325.405 89.2158 326.154 89.5561 326.707 90.1611C327.259 90.7661 327.57 91.5865 327.57 92.4421V93.7033C327.57 94.5589 327.259 95.3792 326.707 95.9842C326.154 96.5893 325.405 96.9296 324.624 96.9305Z" fill="#E6E6E6"/>
<path d="M235.621 145.501C241.859 145.501 246.915 139.962 246.915 133.129C246.915 126.297 241.859 120.758 235.621 120.758C229.383 120.758 224.326 126.297 224.326 133.129C224.326 139.962 229.383 145.501 235.621 145.501Z" fill="white"/>
<path d="M241.022 131.515H237.093V127.211C237.093 126.783 236.938 126.373 236.662 126.07C236.386 125.768 236.011 125.598 235.62 125.598C235.229 125.598 234.855 125.768 234.578 126.07C234.302 126.373 234.147 126.783 234.147 127.211V131.515H230.218C229.828 131.515 229.453 131.685 229.177 131.987C228.9 132.29 228.745 132.7 228.745 133.128C228.745 133.556 228.9 133.967 229.177 134.269C229.453 134.572 229.828 134.742 230.218 134.742H234.147V139.045C234.147 139.473 234.302 139.884 234.578 140.186C234.855 140.489 235.229 140.659 235.62 140.659C236.011 140.659 236.386 140.489 236.662 140.186C236.938 139.884 237.093 139.473 237.093 139.045V134.742H241.022C241.413 134.742 241.787 134.572 242.064 134.269C242.34 133.967 242.495 133.556 242.495 133.128C242.495 132.7 242.34 132.29 242.064 131.987C241.787 131.685 241.413 131.515 241.022 131.515Z" fill="#E6E6E6"/>
<path d="M249.861 19.363H229.236C228.65 19.3623 228.089 19.107 227.674 18.6532C227.26 18.1995 227.027 17.5842 227.026 16.9425V12.6393C227.027 11.9975 227.26 11.3823 227.674 10.9285C228.089 10.4747 228.65 10.2195 229.236 10.2188H249.861C250.447 10.2195 251.009 10.4747 251.423 10.9285C251.837 11.3823 252.07 11.9975 252.071 12.6393V16.9425C252.07 17.5842 251.837 18.1995 251.423 18.6532C251.009 19.107 250.447 19.3623 249.861 19.363Z" fill="#CCCCCC"/>
<path d="M324.505 60.781H303.88C303.294 60.7803 302.732 60.525 302.318 60.0712C301.904 59.6174 301.671 59.0022 301.67 58.3604V54.0573C301.671 53.4155 301.904 52.8003 302.318 52.3465C302.732 51.8927 303.294 51.6374 303.88 51.6367H324.505C325.091 51.6374 325.652 51.8927 326.067 52.3465C326.481 52.8003 326.714 53.4155 326.715 54.0573V58.3604C326.714 59.0022 326.481 59.6174 326.067 60.0712C325.652 60.525 325.091 60.7803 324.505 60.781Z" fill="#CCCCCC"/>
<path d="M198.919 201.702L162.758 185.245C161.965 184.887 161.257 184.336 160.688 183.634C160.119 182.931 159.704 182.096 159.474 181.191C159.238 180.276 159.195 179.314 159.35 178.378C159.504 177.442 159.851 176.557 160.365 175.791C169.498 162.017 175.543 146.081 178.01 129.273C178.143 128.334 178.471 127.44 178.967 126.66C179.464 125.88 180.116 125.234 180.875 124.772C181.622 124.312 182.456 124.045 183.312 123.991C184.167 123.937 185.023 124.097 185.814 124.46L221.976 140.918C223.223 141.49 224.244 142.528 224.857 143.848C225.471 145.168 225.636 146.683 225.325 148.124C221.283 166.138 214.747 183.369 205.945 199.217C205.232 200.475 204.135 201.416 202.848 201.871C201.562 202.326 200.169 202.266 198.919 201.702Z" fill="#E6E6E6"/>
<path d="M184.684 127.442C184.304 127.267 183.893 127.19 183.482 127.216C183.071 127.242 182.671 127.37 182.312 127.59C181.943 127.816 181.625 128.131 181.384 128.511C181.143 128.891 180.984 129.326 180.919 129.784C178.379 147.094 172.153 163.505 162.748 177.691C162.497 178.064 162.328 178.494 162.252 178.95C162.176 179.405 162.196 179.873 162.311 180.319C162.421 180.753 162.621 181.155 162.894 181.492C163.168 181.829 163.508 182.094 163.888 182.265L200.05 198.723C200.649 198.996 201.318 199.027 201.937 198.81C202.555 198.594 203.083 198.144 203.427 197.541C212.073 181.974 218.493 165.049 222.464 147.354C222.612 146.662 222.53 145.934 222.233 145.301C221.937 144.669 221.445 144.172 220.845 143.899L184.684 127.442Z" fill="white"/>
<path d="M203.939 164.077L184.963 155.441C184.242 155.112 183.67 154.483 183.372 153.692C183.074 152.902 183.074 152.013 183.373 151.223L183.815 150.058C184.115 149.268 184.689 148.641 185.411 148.315C186.133 147.988 186.944 147.989 187.666 148.316L206.642 156.952C207.363 157.281 207.936 157.91 208.234 158.701C208.532 159.492 208.531 160.38 208.233 161.171L207.791 162.335C207.49 163.125 206.916 163.752 206.194 164.079C205.472 164.405 204.661 164.405 203.939 164.077Z" fill="#FF7500"/>
<path d="M198.357 178.792L179.381 170.156C178.66 169.827 178.088 169.198 177.79 168.407C177.492 167.616 177.492 166.728 177.791 165.938L178.233 164.773C178.533 163.983 179.107 163.356 179.829 163.03C180.551 162.703 181.362 162.704 182.084 163.031L201.06 171.667C201.781 171.996 202.354 172.625 202.652 173.416C202.95 174.207 202.949 175.095 202.651 175.886L202.209 177.05C201.908 177.84 201.334 178.467 200.612 178.794C199.89 179.12 199.079 179.12 198.357 178.792Z" fill="#FF7500"/>
</svg>
