<svg xmlns="http://www.w3.org/2000/svg" width="256" height="38" fill="none"><path d="M14.97 20.163L3 4.362h10.087l6.253 8.74 6.254-8.74h10.087l-11.97 15.8v7.733H14.97v-7.732z" fill="#FF7500"/><path d="M43.675 28.231c-8.574 0-13.718-2.958-13.718-10.422 0-7.463 5.144-10.421 13.718-10.421s13.718 2.958 13.718 10.421c0 7.464-5.144 10.422-13.718 10.422zm0-6.723c3.598 0 5.649-.74 5.649-3.698 0-2.959-2.051-3.699-5.649-3.699-3.597 0-5.648.74-5.648 3.698 0 2.959 2.05 3.699 5.648 3.699zM77.43 7.724h8.07v17.583c0 8.068-5.784 10.993-12.71 10.993-5.75 0-10.692-1.076-12.608-1.58v-6.556c2.32.437 6.758 1.412 11.129 1.412 3.933 0 6.052-.941 6.119-6.051-1.748 2.118-4.606 3.362-8.675 3.362-6.22 0-10.692-2.959-10.692-9.75 0-6.79 4.472-9.75 10.692-9.75 4.069 0 6.927 1.245 8.675 3.362V7.724zm-5.649 12.439c4.27 0 5.649-.74 5.649-3.026 0-2.286-1.379-3.026-5.649-3.026s-5.648.74-5.648 3.026c0 2.286 1.378 3.026 5.648 3.026zM106.377 7.724h8.742L103.653 36.3h-8.741l3.362-8.405h-3.699L86.17 7.724h8.742l5.85 14.019 5.615-14.02zM126.879 7.388c8.271 0 12.978 2.824 13.046 10.522v9.985h-8.07v-2.454c-3.127 2.286-6.623 2.79-10.12 2.79-4.606 0-8.641-1.647-8.641-6.017 0-5.245 6.052-6.623 11.936-6.623 2.824 0 4.976.37 6.825 1.042 0-2.42-2.555-2.522-5.245-2.522-2.589 0-5.547.236-9.246 1.043l-2.623-5.716c4.035-1.31 8.406-2.05 12.138-2.05zm4.976 13.918v-.84c-1.277-.337-3.026-.505-5.346-.505-3.732 0-5.346.336-5.346 1.614 0 1.11.942 1.277 2.993 1.277 2.723 0 5.682-.672 7.699-1.546zM157.682 7.388c5.211 0 11.028 2.286 11.028 10.421 0 8.136-5.817 10.422-11.028 10.422-3.127 0-6.221-.94-8.339-3.093v2.757h-8.069V1h8.069v9.48c2.118-2.151 5.212-3.092 8.339-3.092zm-2.69 14.12c3.597 0 5.648-.74 5.648-3.698 0-2.959-2.051-3.699-5.648-3.699-3.598 0-5.649.74-5.649 3.698 0 2.959 2.051 3.699 5.649 3.699zM182.501 7.388c8.271 0 12.978 2.824 13.045 10.522v9.985h-8.069v-2.454c-3.127 2.286-6.624 2.79-10.12 2.79-4.607 0-8.641-1.647-8.641-6.017 0-5.245 6.052-6.623 11.936-6.623 2.824 0 4.976.37 6.825 1.042 0-2.42-2.555-2.522-5.245-2.522-2.589 0-5.548.236-9.246 1.043l-2.623-5.716c4.035-1.31 8.406-2.05 12.138-2.05zm4.976 13.918v-.84c-1.278-.337-3.026-.505-5.346-.505-3.732 0-5.346.336-5.346 1.614 0 1.11.941 1.277 2.992 1.277 2.724 0 5.683-.672 7.7-1.546zM214.387 7.388c4.539 0 9.683 1.412 9.683 8.707v11.8h-8.069V19.39c0-3.463-1.244-4.942-4.875-4.942-2.388 0-4.909 1.042-6.489 2.555v10.892h-8.07V7.724h8.07v2.69c2.42-1.682 5.514-3.026 9.75-3.026zM238.482 28.231c-8.574 0-13.718-2.958-13.718-10.422 0-7.463 5.144-10.421 13.718-10.421S252.2 10.346 252.2 17.809c0 7.464-5.144 10.422-13.718 10.422zm0-6.723c3.598 0 5.649-.74 5.649-3.698 0-2.959-2.051-3.699-5.649-3.699s-5.649.74-5.649 3.698c0 2.959 2.051 3.699 5.649 3.699z" fill="#FF7500"/></svg>