<svg width="310" height="44" viewBox="0 0 310 44" fill="none" xmlns="http://www.w3.org/2000/svg">
<rect width="310" height="44" fill="white"/>
<path d="M14.592 22.265L0 3.00037H12.2966L19.9205 13.6574L27.5443 3.00037H39.8409L25.249 22.265V31.6924H14.592V22.265Z" fill="#FF7500"/>
<path d="M50.0396 32.1022C39.5874 32.1022 33.3162 28.4952 33.3162 19.3958C33.3162 10.2963 39.5874 6.68933 50.0396 6.68933C60.4917 6.68933 66.7629 10.2963 66.7629 19.3958C66.7629 28.4952 60.4917 32.1022 50.0396 32.1022ZM50.0396 23.9045C54.4253 23.9045 56.9257 23.0028 56.9257 19.3958C56.9257 15.7888 54.4253 14.887 50.0396 14.887C45.6538 14.887 43.1534 15.7888 43.1534 19.3958C43.1534 23.0028 45.6538 23.9045 50.0396 23.9045Z" fill="#FF7500"/>
<path d="M91.6486 7.09922H101.486V28.5362C101.486 38.3735 94.4358 41.9395 85.9921 41.9395C78.983 41.9395 72.9577 40.6279 70.6213 40.013V32.0203C73.4496 32.5531 78.8603 33.7418 84.1888 33.7418C88.9845 33.7418 91.5666 32.5941 91.6486 26.3638C89.5171 28.9461 86.0331 30.4627 81.0735 30.4627C73.4906 30.4627 68.0391 26.8557 68.0391 18.576C68.0391 10.2963 73.4906 6.68933 81.0735 6.68933C86.0331 6.68933 89.5171 8.20591 91.6486 10.7882V7.09922ZM84.7625 22.265C89.968 22.265 91.6486 21.3632 91.6486 18.576C91.6486 15.7888 89.968 14.887 84.7625 14.887C79.5569 14.887 77.8764 15.7888 77.8764 18.576C77.8764 21.3632 79.5569 22.265 84.7625 22.265Z" fill="#FF7500"/>
<path d="M127.391 7.09912H138.048L124.071 41.9394H113.414L117.513 31.6923H113.004L102.757 7.09912H113.414L120.546 24.1913L127.391 7.09912Z" fill="#FF7500"/>
<path d="M152.843 6.68933C162.926 6.68933 168.665 10.1324 168.747 19.5188V31.6924H158.909V28.7002C155.097 31.4874 150.835 32.1022 146.572 32.1022C140.956 32.1022 136.038 30.0938 136.038 24.7653C136.038 18.3711 143.416 16.6905 150.589 16.6905C154.032 16.6905 156.655 17.1414 158.909 17.9612C158.909 15.01 155.794 14.887 152.515 14.887C149.359 14.887 145.752 15.174 141.243 16.1577L138.046 9.18963C142.965 7.59108 148.293 6.68933 152.843 6.68933ZM158.909 23.6586V22.6339C157.352 22.224 155.22 22.0191 152.392 22.0191C147.842 22.0191 145.875 22.4289 145.875 23.9865C145.875 25.3391 147.023 25.5441 149.523 25.5441C152.843 25.5441 156.45 24.7243 158.909 23.6586Z" fill="#FF7500"/>
<path d="M202.118 15.6655C204.618 17.469 206.421 20.0922 206.421 23.2074C206.421 27.921 203.593 31.692 197.076 31.692H170.843V3H195.846C202.363 3 204.372 5.95118 204.372 10.296C204.372 12.1405 203.511 14.0259 202.118 15.6655ZM181.5 9.96806V13.0832H191.337C192.403 13.0832 193.715 13.0832 193.715 11.5256C193.715 9.96806 192.403 9.96806 191.337 9.96806H181.5ZM193.387 23.9042C194.453 23.9042 195.764 23.9042 195.764 22.3876C195.764 20.871 194.453 20.871 193.387 20.871H181.5V23.9042H193.387Z" fill="#FF7500"/>
<path d="M224.118 6.68933C234.203 6.68933 239.941 10.1324 240.023 19.5188V31.6924H230.186V28.7002C226.373 31.4874 222.11 32.1022 217.847 32.1022C212.232 32.1022 207.313 30.0938 207.313 24.7653C207.313 18.3711 214.691 16.6905 221.864 16.6905C225.307 16.6905 227.931 17.1414 230.186 17.9612C230.186 15.01 227.07 14.887 223.79 14.887C220.634 14.887 217.027 15.174 212.519 16.1577L209.321 9.18963C214.24 7.59108 219.569 6.68933 224.118 6.68933ZM230.186 23.6586V22.6339C228.628 22.224 226.496 22.0191 223.667 22.0191C219.118 22.0191 217.15 22.4289 217.15 23.9865C217.15 25.3391 218.298 25.5441 220.798 25.5441C224.118 25.5441 227.727 24.7243 230.186 23.6586Z" fill="#FF7500"/>
<path d="M263.448 6.68933C268.982 6.68933 275.253 8.41085 275.253 17.3054V31.6924H265.416V21.3222C265.416 17.1004 263.899 15.2969 259.472 15.2969C256.562 15.2969 253.488 16.5676 251.562 18.4121V31.6924H241.724V7.09922H251.562V10.3783C254.513 8.32887 258.284 6.68933 263.448 6.68933Z" fill="#FF7500"/>
<path d="M293.277 32.1022C282.824 32.1022 276.553 28.4952 276.553 19.3958C276.553 10.2963 282.824 6.68933 293.277 6.68933C303.729 6.68933 310 10.2963 310 19.3958C310 28.4952 303.729 32.1022 293.277 32.1022ZM293.277 23.9045C297.662 23.9045 300.163 23.0028 300.163 19.3958C300.163 15.7888 297.662 14.887 293.277 14.887C288.891 14.887 286.39 15.7888 286.39 19.3958C286.39 23.0028 288.891 23.9045 293.277 23.9045Z" fill="#FF7500"/>
</svg>
