<svg xmlns="http://www.w3.org/2000/svg" width="256" height="38" viewBox="0 0 256 38" fill="none">
  <path d="M14.9696 20.1629L3 4.3619H13.0868L19.3405 13.1029L25.5943 4.3619H35.6811L23.7115 20.1629V27.8952H14.9696V20.1629Z" fill="#FF7500"/>
  <path d="M43.6751 28.2314C35.1013 28.2314 29.9571 25.273 29.9571 17.8095C29.9571 10.3461 35.1013 7.38762 43.6751 7.38762C52.2488 7.38762 57.3931 10.3461 57.3931 17.8095C57.3931 25.273 52.2488 28.2314 43.6751 28.2314ZM43.6751 21.5076C47.2727 21.5076 49.3237 20.768 49.3237 17.8095C49.3237 14.851 47.2727 14.1114 43.6751 14.1114C40.0775 14.1114 38.0265 14.851 38.0265 17.8095C38.0265 20.768 40.0775 21.5076 43.6751 21.5076Z" fill="#FF7500"/>
  <path d="M77.43 7.72381H85.4994V25.3066C85.4994 33.3751 79.7163 36.3 72.7901 36.3C67.0406 36.3 62.0981 35.2242 60.1816 34.7199V28.1642C62.5016 28.6012 66.9398 29.5762 71.3107 29.5762C75.2445 29.5762 77.3627 28.6349 77.43 23.5248C75.6816 25.6428 72.8237 26.8867 68.7554 26.8867C62.5352 26.8867 58.0634 23.9282 58.0634 17.1371C58.0634 10.3461 62.5352 7.38762 68.7554 7.38762C72.8237 7.38762 75.6816 8.63152 77.43 10.7495V7.72381ZM71.7814 20.1629C76.0515 20.1629 77.43 19.4232 77.43 17.1371C77.43 14.851 76.0515 14.1114 71.7814 14.1114C67.5113 14.1114 66.1328 14.851 66.1328 17.1371C66.1328 19.4232 67.5113 20.1629 71.7814 20.1629Z" fill="#FF7500"/>
  <path d="M106.377 7.72381H115.119L103.653 36.3H94.9116L98.2738 27.8952H94.5753L86.1697 7.72381H94.9116L100.762 21.743L106.377 7.72381Z" fill="#FF7500"/>
  <path d="M126.879 7.38762C135.15 7.38762 139.857 10.2116 139.925 17.9104V27.8952H131.855V25.441C128.728 27.7271 125.232 28.2314 121.735 28.2314C117.129 28.2314 113.094 26.5841 113.094 22.2136C113.094 16.969 119.146 15.5907 125.03 15.5907C127.854 15.5907 130.006 15.9605 131.855 16.6329C131.855 14.2123 129.3 14.1114 126.61 14.1114C124.021 14.1114 121.063 14.3468 117.364 15.1536L114.741 9.43838C118.776 8.12724 123.147 7.38762 126.879 7.38762ZM131.855 21.3059V20.4654C130.578 20.1292 128.829 19.9611 126.509 19.9611C122.777 19.9611 121.163 20.2973 121.163 21.5749C121.163 22.6843 122.105 22.8524 124.156 22.8524C126.879 22.8524 129.838 22.18 131.855 21.3059Z" fill="#FF7500"/>
  <path d="M157.682 7.38762C162.893 7.38762 168.71 9.67371 168.71 17.8095C168.71 25.9453 162.893 28.2314 157.682 28.2314C154.555 28.2314 151.461 27.2901 149.343 25.1385V27.8952H141.274V1H149.343V10.4806C151.461 8.32895 154.555 7.38762 157.682 7.38762ZM154.992 21.5076C158.589 21.5076 160.64 20.768 160.64 17.8095C160.64 14.851 158.589 14.1114 154.992 14.1114C151.394 14.1114 149.343 14.851 149.343 17.8095C149.343 20.768 151.394 21.5076 154.992 21.5076Z" fill="#FF7500"/>
  <path d="M182.501 7.38762C190.772 7.38762 195.479 10.2116 195.546 17.9104V27.8952H187.477V25.441C184.35 27.7271 180.853 28.2314 177.357 28.2314C172.75 28.2314 168.716 26.5841 168.716 22.2136C168.716 16.969 174.768 15.5907 180.652 15.5907C183.476 15.5907 185.628 15.9605 187.477 16.6329C187.477 14.2123 184.922 14.1114 182.232 14.1114C179.643 14.1114 176.684 14.3468 172.986 15.1536L170.363 9.43838C174.398 8.12724 178.769 7.38762 182.501 7.38762ZM187.477 21.3059V20.4654C186.199 20.1292 184.451 19.9611 182.131 19.9611C178.399 19.9611 176.785 20.2973 176.785 21.5749C176.785 22.6843 177.726 22.8524 179.777 22.8524C182.501 22.8524 185.46 22.18 187.477 21.3059Z" fill="#FF7500"/>
  <path d="M214.387 7.38762C218.926 7.38762 224.07 8.79962 224.07 16.095V27.8952H216.001V19.3896C216.001 15.9269 214.757 14.4476 211.126 14.4476C208.738 14.4476 206.217 15.4898 204.637 17.0027V27.8952H196.567V7.72381H204.637V10.4133C207.057 8.73238 210.151 7.38762 214.387 7.38762Z" fill="#FF7500"/>
  <path d="M238.482 28.2314C229.908 28.2314 224.764 25.273 224.764 17.8095C224.764 10.3461 229.908 7.38762 238.482 7.38762C247.056 7.38762 252.2 10.3461 252.2 17.8095C252.2 25.273 247.056 28.2314 238.482 28.2314ZM238.482 21.5076C242.08 21.5076 244.131 20.768 244.131 17.8095C244.131 14.851 242.08 14.1114 238.482 14.1114C234.884 14.1114 232.833 14.851 232.833 17.8095C232.833 20.768 234.884 21.5076 238.482 21.5076Z" fill="#FF7500"/>
</svg>